<?xml version="1.0" encoding="iso-8859-1"?>
<!-- Generator: Adobe Illustrator 19.0.0, SVG Export Plug-In . SVG Version: 6.00 Build 0)  -->
<svg version="1.1" id="Layer_1" xmlns="http://www.w3.org/2000/svg" xmlns:xlink="http://www.w3.org/1999/xlink" x="0px" y="0px"
	 viewBox="0 0 512 512" style="enable-background:new 0 0 512 512;" xml:space="preserve">
<g>
	<g>
		<g>
			<path d="M256,153.6c-84.704,0-153.6,68.896-153.6,153.6S171.296,460.8,256,460.8s153.6-68.896,153.6-153.6
				S340.704,153.6,256,153.6z M256,443.733c-75.279,0-136.533-61.255-136.533-136.533S180.721,170.667,256,170.667
				S392.533,231.921,392.533,307.2S331.279,443.733,256,443.733z"/>
			<path d="M335.973,123.669l30.06-60.119c0.06-0.12,0.099-0.242,0.152-0.362c0.085-0.19,0.171-0.379,0.242-0.576
				c0.065-0.178,0.114-0.357,0.166-0.537c0.051-0.176,0.104-0.351,0.144-0.53c0.042-0.188,0.069-0.375,0.097-0.562
				c0.028-0.182,0.057-0.363,0.073-0.547c0.014-0.168,0.015-0.335,0.019-0.502c0.006-0.21,0.012-0.418,0.002-0.629
				c-0.007-0.127-0.025-0.251-0.037-0.376c-0.023-0.246-0.046-0.491-0.092-0.737c-0.013-0.067-0.034-0.132-0.048-0.199
				c-0.103-0.487-0.254-0.969-0.45-1.447c-0.053-0.13-0.096-0.265-0.156-0.393c-0.059-0.125-0.134-0.247-0.2-0.371
				c-0.119-0.227-0.242-0.451-0.38-0.667c-0.025-0.038-0.041-0.078-0.066-0.116L331.367,3.8c-1.583-2.374-4.247-3.8-7.1-3.8H256
				h-68.267c-2.853,0-5.518,1.426-7.1,3.8L146.5,55c-0.025,0.038-0.041,0.078-0.066,0.116c-0.139,0.216-0.262,0.441-0.381,0.668
				c-0.065,0.124-0.14,0.245-0.199,0.37c-0.061,0.131-0.105,0.269-0.16,0.403c-0.194,0.474-0.344,0.953-0.446,1.436
				c-0.014,0.067-0.036,0.132-0.048,0.2c-0.046,0.245-0.069,0.49-0.092,0.735c-0.012,0.126-0.031,0.251-0.037,0.378
				c-0.01,0.21-0.003,0.418,0.002,0.627c0.004,0.168,0.005,0.335,0.019,0.504c0.016,0.183,0.045,0.363,0.073,0.544
				c0.028,0.188,0.055,0.376,0.097,0.565c0.04,0.179,0.093,0.353,0.144,0.528c0.052,0.18,0.102,0.36,0.167,0.539
				c0.071,0.195,0.157,0.384,0.241,0.573c0.054,0.121,0.093,0.244,0.153,0.364l30.06,60.119
				C101.303,156.832,51.2,227.158,51.2,307.2C51.2,420.309,142.894,512,256,512s204.8-91.691,204.8-204.8
				C460.8,227.158,410.698,156.832,335.973,123.669z M318.993,119.467h-32.119l11.982-23.964l13.618-27.236h32.119L318.993,119.467z
				 M286.599,51.2h-61.197L256,20.601L286.599,51.2z M244.207,119.467l-25.6-51.2h74.786l-11.982,23.964l-13.618,27.236H244.207z
				 M319.7,17.067L342.455,51.2h-31.721l-34.133-34.133H319.7z M192.3,17.067h43.098L201.265,51.2h-31.721L192.3,17.067z
				 M199.526,68.267l13.618,27.236l11.982,23.964h-32.119l-25.6-51.2H199.526z M256,494.933
				c-103.681,0-187.733-84.05-187.733-187.733c0-75.244,48.758-141.374,121.112-170.667h49.555h34.133h49.555
				c72.354,29.293,121.112,95.423,121.112,170.667C443.733,410.883,359.681,494.933,256,494.933z"/>
		</g>
	</g>
</g>
<g>
</g>
<g>
</g>
<g>
</g>
<g>
</g>
<g>
</g>
<g>
</g>
<g>
</g>
<g>
</g>
<g>
</g>
<g>
</g>
<g>
</g>
<g>
</g>
<g>
</g>
<g>
</g>
<g>
</g>
</svg>
